HIERARCHY
ROOT Hips
{
	OFFSET 0.000000 71.427986 0.000000
	CHANNELS 6 Xposition Yposition Zposition Xrotation Yrotation Zrotation
	JOINT Pelvis
	{
		OFFSET 0.000000 0.000000 0.000000
		CHANNELS 3 Xrotation Yrotation Zrotation
		JOINT LeftUpLeg
		{
			OFFSET 6.797100 -2.508499 -1.318700
			CHANNELS 3 Xrotation Yrotation Zrotation
			JOINT LeftLeg
			{
				OFFSET 0.069008 -29.241863 0.690200
				CHANNELS 3 Xrotation Yrotation Zrotation
				JOINT LeftFoot
				{
					OFFSET -0.069008 -29.568123 -0.266800
					CHANNELS 3 Xrotation Yrotation Zrotation
					JOINT LeftToeBase
					{
						OFFSET 3.145500 -8.631000 16.059900
						CHANNELS 3 Xrotation Yrotation Zrotation
						End Site
						{
							OFFSET 0.000000 18.501587 0.000000
						}
					}
				}
			}
			JOINT Left_ShortSleeve
			{
				OFFSET 0.265923 -10.480953 1.153800
				CHANNELS 3 Xrotation Yrotation Zrotation
				End Site
				{
					OFFSET 1.725763 19.823879 0.000000
				}
			}
		}
		JOINT RightUpLeg
		{
			OFFSET -6.797100 -2.508499 -1.318700
			CHANNELS 3 Xrotation Yrotation Zrotation
			JOINT RightLeg
			{
				OFFSET -0.082453 -29.241932 0.688000
				CHANNELS 3 Xrotation Yrotation Zrotation
				JOINT RightFoot
				{
					OFFSET 0.082453 -29.568058 -0.264600
					CHANNELS 3 Xrotation Yrotation Zrotation
					JOINT RightToeBase
					{
						OFFSET -3.115300 -8.682800 16.113400
						CHANNELS 3 Xrotation Yrotation Zrotation
						End Site
						{
							OFFSET 0.000000 18.567114 0.000000
						}
					}
				}
			}
			JOINT Right_ShortSleeve
			{
				OFFSET -0.265923 -10.480953 1.153800
				CHANNELS 3 Xrotation Yrotation Zrotation
				End Site
				{
					OFFSET -1.725766 19.823910 0.000000
				}
			}
		}
	}
	JOINT Spine
	{
		OFFSET 0.000000 13.368103 0.470500
		CHANNELS 3 Xrotation Yrotation Zrotation
		JOINT Spine1
		{
			OFFSET 0.147000 13.837402 0.538800
			CHANNELS 3 Xrotation Yrotation Zrotation
			JOINT Spine2
			{
				OFFSET 0.168000 16.242897 -1.435500
				CHANNELS 3 Xrotation Yrotation Zrotation
				JOINT Neck
				{
					OFFSET 0.217200 18.631500 -1.679100
					CHANNELS 3 Xrotation Yrotation Zrotation
					JOINT Head
					{
						OFFSET 0.000000 6.599396 1.385900
						CHANNELS 3 Xrotation Yrotation Zrotation
						JOINT Hat
						{
							OFFSET -0.532200 27.220596 -10.096100
							CHANNELS 3 Xrotation Yrotation Zrotation
							End Site
							{
								OFFSET 0.000000 22.029861 0.000000
							}
						}
						JOINT HairD
						{
							OFFSET -10.777400 17.437393 -1.325900
							CHANNELS 3 Xrotation Yrotation Zrotation
							JOINT HairD1
							{
								OFFSET -3.290299 -11.051193 1.062200
								CHANNELS 3 Xrotation Yrotation Zrotation
								End Site
								{
									OFFSET 0.000000 11.579437 0.000000
								}
							}
						}
						JOINT HairB
						{
							OFFSET -10.777400 17.437393 1.467900
							CHANNELS 3 Xrotation Yrotation Zrotation
							JOINT HairB1
							{
								OFFSET -1.561200 -12.956299 3.590200
								CHANNELS 3 Xrotation Yrotation Zrotation
								End Site
								{
									OFFSET 0.000000 13.534866 0.000000
								}
							}
						}
						JOINT HairA
						{
							OFFSET 9.713100 17.437393 1.467900
							CHANNELS 3 Xrotation Yrotation Zrotation
							JOINT HairA1
							{
								OFFSET 1.561200 -12.956299 3.590200
								CHANNELS 3 Xrotation Yrotation Zrotation
								End Site
								{
									OFFSET 0.000000 13.534866 0.000000
								}
							}
						}
						JOINT HairC
						{
							OFFSET 9.713100 17.437393 -1.325900
							CHANNELS 3 Xrotation Yrotation Zrotation
							JOINT HairC1
							{
								OFFSET 3.290300 -11.051193 1.062200
								CHANNELS 3 Xrotation Yrotation Zrotation
								End Site
								{
									OFFSET 0.000000 11.579437 0.000000
								}
							}
						}
					}
				}
				JOINT LeftShoulder
				{
					OFFSET 5.101800 15.108002 -2.763700
					CHANNELS 3 Xrotation Yrotation Zrotation
					JOINT LeftArm
					{
						OFFSET 9.825497 2.506317 -1.597400
						CHANNELS 3 Xrotation Yrotation Zrotation
						JOINT LeftForeArm
						{
							OFFSET 21.966244 0.000000 0.000000
							CHANNELS 3 Xrotation Yrotation Zrotation
							JOINT LeftHand
							{
								OFFSET 33.879036 0.000000 0.000000
								CHANNELS 3 Xrotation Yrotation Zrotation
								JOINT LeftHandThumb1
								{
									OFFSET 6.715286 -2.359680 3.363841
									CHANNELS 3 Xrotation Yrotation Zrotation
									JOINT LeftHandThumb2
									{
										OFFSET 2.507072 -1.447464 1.447461
										CHANNELS 3 Xrotation Yrotation Zrotation
										JOINT LeftHandThumb3
										{
											OFFSET 2.898338 -1.673355 1.673357
											CHANNELS 3 Xrotation Yrotation Zrotation
											End Site
											{
												OFFSET -0.295959 3.727692 -0.131651
											}
										}
									}
								}
								JOINT LeftHandIndex1
								{
									OFFSET 14.190811 -0.254547 3.840278
									CHANNELS 3 Xrotation Yrotation Zrotation
									JOINT LeftHandIndex2
									{
										OFFSET 3.551727 0.000000 -0.000000
										CHANNELS 3 Xrotation Yrotation Zrotation
										JOINT LeftHandIndex3
										{
											OFFSET 2.894196 0.000000 0.000000
											CHANNELS 3 Xrotation Yrotation Zrotation
											End Site
											{
												OFFSET -1.000603 2.690872 0.366626
											}
										}
									}
								}
								JOINT LeftHandMiddle1
								{
									OFFSET 13.776489 0.000000 0.000000
									CHANNELS 3 Xrotation Yrotation Zrotation
									JOINT LeftHandMiddle2
									{
										OFFSET 3.438232 0.000000 0.000000
										CHANNELS 3 Xrotation Yrotation Zrotation
										JOINT LeftHandMiddle3
										{
											OFFSET 3.691551 0.000000 0.000000
											CHANNELS 3 Xrotation Yrotation Zrotation
											End Site
											{
												OFFSET -1.082298 3.499527 0.457670
											}
										}
									}
								}
								JOINT LeftHandRing1
								{
									OFFSET 13.966164 -0.268127 -3.067488
									CHANNELS 3 Xrotation Yrotation Zrotation
									JOINT LeftHandRing2
									{
										OFFSET 3.162567 0.000000 0.000000
										CHANNELS 3 Xrotation Yrotation Zrotation
										JOINT LeftHandRing3
										{
											OFFSET 3.324348 0.000000 0.000000
											CHANNELS 3 Xrotation Yrotation Zrotation
											End Site
											{
												OFFSET -0.861900 3.184998 0.405154
											}
										}
									}
								}
								JOINT LeftHandPinky1
								{
									OFFSET 13.131393 -0.168503 -5.746925
									CHANNELS 3 Xrotation Yrotation Zrotation
									JOINT LeftHandPinky2
									{
										OFFSET 2.849182 0.000000 0.000000
										CHANNELS 3 Xrotation Yrotation Zrotation
										JOINT LeftHandPinky3
										{
											OFFSET 2.805038 0.000000 0.000000
											CHANNELS 3 Xrotation Yrotation Zrotation
											End Site
											{
												OFFSET -0.882500 2.642609 0.325652
											}
										}
									}
								}
							}
							JOINT Left_Sleeve
							{
								OFFSET 6.592125 -0.646545 0.805568
								CHANNELS 3 Xrotation Yrotation Zrotation
								End Site
								{
									OFFSET -0.000179 20.275787 -0.000000
								}
							}
						}
					}
				}
				JOINT RightShoulder
				{
					OFFSET -5.731700 15.108002 -2.763700
					CHANNELS 3 Xrotation Yrotation Zrotation
					JOINT RightArm
					{
						OFFSET -9.825497 2.506317 -1.597400
						CHANNELS 3 Xrotation Yrotation Zrotation
						JOINT RightForeArm
						{
							OFFSET -21.966242 0.000000 0.000000
							CHANNELS 3 Xrotation Yrotation Zrotation
							JOINT RightHand
							{
								OFFSET -33.879032 0.000000 0.000000
								CHANNELS 3 Xrotation Yrotation Zrotation
								JOINT RightHandThumb1
								{
									OFFSET -6.715286 -2.359680 3.363841
									CHANNELS 3 Xrotation Yrotation Zrotation
									JOINT RightHandThumb2
									{
										OFFSET -2.507072 -1.447464 1.447461
										CHANNELS 3 Xrotation Yrotation Zrotation
										JOINT RightHandThumb3
										{
											OFFSET -2.898338 -1.673355 1.673357
											CHANNELS 3 Xrotation Yrotation Zrotation
											End Site
											{
												OFFSET 0.295959 3.727692 -0.131651
											}
										}
									}
								}
								JOINT RightHandIndex1
								{
									OFFSET -14.190811 -0.254547 3.840278
									CHANNELS 3 Xrotation Yrotation Zrotation
									JOINT RightHandIndex2
									{
										OFFSET -3.551727 0.000000 -0.000000
										CHANNELS 3 Xrotation Yrotation Zrotation
										JOINT RightHandIndex3
										{
											OFFSET -2.894196 0.000000 0.000000
											CHANNELS 3 Xrotation Yrotation Zrotation
											End Site
											{
												OFFSET 1.000603 2.690872 0.366626
											}
										}
									}
								}
								JOINT RightHandMiddle1
								{
									OFFSET -13.776489 0.000000 0.000000
									CHANNELS 3 Xrotation Yrotation Zrotation
									JOINT RightHandMiddle2
									{
										OFFSET -3.438232 0.000000 0.000000
										CHANNELS 3 Xrotation Yrotation Zrotation
										JOINT RightHandMiddle3
										{
											OFFSET -3.691551 0.000000 0.000000
											CHANNELS 3 Xrotation Yrotation Zrotation
											End Site
											{
												OFFSET 1.082298 3.499527 0.457670
											}
										}
									}
								}
								JOINT RightHandRing1
								{
									OFFSET -13.966164 -0.268127 -3.067488
									CHANNELS 3 Xrotation Yrotation Zrotation
									JOINT RightHandRing2
									{
										OFFSET -3.162567 0.000000 0.000000
										CHANNELS 3 Xrotation Yrotation Zrotation
										JOINT RightHandRing3
										{
											OFFSET -3.324348 0.000000 0.000000
											CHANNELS 3 Xrotation Yrotation Zrotation
											End Site
											{
												OFFSET 0.861900 3.184998 0.405154
											}
										}
									}
								}
								JOINT RightHandPinky1
								{
									OFFSET -13.131393 -0.168503 -5.746925
									CHANNELS 3 Xrotation Yrotation Zrotation
									JOINT RightHandPinky2
									{
										OFFSET -2.849182 0.000000 0.000000
										CHANNELS 3 Xrotation Yrotation Zrotation
										JOINT RightHandPinky3
										{
											OFFSET -2.805038 0.000000 0.000000
											CHANNELS 3 Xrotation Yrotation Zrotation
											End Site
											{
												OFFSET 0.882500 2.642609 0.325652
											}
										}
									}
								}
							}
							JOINT Right_Sleeve
							{
								OFFSET -6.592125 -0.646545 0.805568
								CHANNELS 3 Xrotation Yrotation Zrotation
								End Site
								{
									OFFSET 0.000179 20.275787 -0.000000
								}
							}
						}
					}
				}
				JOINT Bind_Right_JacketString
				{
					OFFSET -3.534800 11.969597 7.200700
					CHANNELS 3 Xrotation Yrotation Zrotation
					JOINT Bind_Right_JacketString1
					{
						OFFSET -0.319900 -6.102600 2.794100
						CHANNELS 3 Xrotation Yrotation Zrotation
						End Site
						{
							OFFSET 0.000000 6.719452 0.000000
						}
					}
				}
				JOINT Bind_Left_JacketString
				{
					OFFSET 2.904800 11.969597 7.200700
					CHANNELS 3 Xrotation Yrotation Zrotation
					JOINT Bind_Left_JacketString1
					{
						OFFSET 0.364800 -5.904503 3.186800
						CHANNELS 3 Xrotation Yrotation Zrotation
						End Site
						{
							OFFSET 0.000000 6.719513 0.000000
						}
					}
				}
				JOINT HairE
				{
					OFFSET 5.915200 17.612701 -11.592200
					CHANNELS 3 Xrotation Yrotation Zrotation
					JOINT HairE1
					{
						OFFSET 0.289200 -7.171898 -1.284500
						CHANNELS 3 Xrotation Yrotation Zrotation
						End Site
						{
							OFFSET 0.000000 7.291756 0.000000
						}
					}
				}
				JOINT HairF
				{
					OFFSET -0.864800 17.612701 -11.592200
					CHANNELS 3 Xrotation Yrotation Zrotation
					JOINT HairF1
					{
						OFFSET 0.000000 -14.087097 -2.127501
						CHANNELS 3 Xrotation Yrotation Zrotation
						End Site
						{
							OFFSET 0.000000 14.246841 0.000000
						}
					}
				}
				JOINT HairG
				{
					OFFSET -8.087700 17.612701 -11.592200
					CHANNELS 3 Xrotation Yrotation Zrotation
					JOINT HairG1
					{
						OFFSET -0.293600 -6.081398 -0.910100
						CHANNELS 3 Xrotation Yrotation Zrotation
						End Site
						{
							OFFSET 0.000000 6.156120 0.000000
						}
					}
				}
			}
		}
	}
	JOINT Pouch
	{
		OFFSET 0.000000 4.394501 10.847300
		CHANNELS 3 Xrotation Yrotation Zrotation
		End Site
		{
			OFFSET 0.000000 21.880577 0.000000
		}
	}
	JOINT Bag
	{
		OFFSET -13.229000 4.813004 -0.593300
		CHANNELS 3 Xrotation Yrotation Zrotation
		End Site
		{
			OFFSET 0.000000 21.880577 0.000000
		}
	}
	JOINT OccupyGuyFacialAnim_Joint
	{
		OFFSET 1.000000 -70.206398 -1.655000
		CHANNELS 3 Xrotation Yrotation Zrotation
		End Site
		{
			OFFSET 0.000000 21.880577 0.000000
		}
	}
}
MOTION
Frames: 5
Frame Time: 0.016667
-0.941264 61.110634 1.016406 -5.065228 -42.521394 0.404088 0.000000 -0.000001 -0.000000 -30.006298 8.764710 16.917209 59.656621 -6.803464 4.274774 -27.276215 -7.852726 -13.837260 0.000000 0.000000 -0.000000 -0.000003 -0.000001 -0.000000 -23.368335 -12.214104 -27.099843 59.377717 -9.502538 -7.763817 -28.661700 -6.731474 21.415213 0.000000 0.000001 -0.000001 -0.000001 0.000001 -0.000000 9.473351 7.173258 -1.785831 2.187715 0.989904 -0.914787 2.202831 0.982770 -0.893559 0.084650 13.220557 4.538678 8.920922 20.138133 -4.130234 0.000000 0.000000 -0.000001 0.000000 0.000000 -0.000001 0.000000 0.000000 -0.000000 0.000000 0.000000 -0.000001 0.000000 0.000000 -0.000001 0.000000 0.000000 -0.000001 0.000000 0.000000 -0.000001 0.000000 0.000000 -0.000001 0.000000 0.000000 -0.000001 1.117175 3.546356 -8.633307 -53.487020 4.935505 -51.502987 0.000023 -106.358067 0.000037 1.988605 -7.706155 -15.869246 -6.141199 -11.690807 -6.761690 9.914122 42.595501 3.409862 0.000000 0.000001 -0.000001 0.255326 3.378235 -45.814351 5.654072 5.847736 -88.067455 0.000002 0.000003 -0.000003 -0.461472 3.841600 -39.722690 6.450750 5.820345 -95.892837 0.000003 0.000003 -0.000001 0.469720 4.966806 -39.799444 8.181048 5.368626 -113.502998 -0.000002 0.000002 0.000002 -3.762417 9.063705 -45.253825 5.342521 5.829001 -85.005290 -0.000000 -0.000001 0.000003 0.000001 -0.000005 -0.000000 3.036125 13.027200 -5.371405 -48.713732 27.172830 83.457084 -0.000075 105.988321 0.000076 -8.345375 17.548086 8.775674 -7.341078 13.749663 7.412330 9.855777 -44.489093 -3.903266 0.000000 0.000001 -0.000001 -0.124372 -2.384802 45.108878 4.500580 -4.654523 88.071191 -0.000002 -0.000004 0.000001 -0.761624 -2.932913 39.031065 5.133891 -4.632752 95.881642 0.000000 -0.000001 0.000001 0.154757 -4.068797 39.122671 6.509724 -4.273608 113.462850 0.000002 0.000001 -0.000001 -4.198883 -8.025529 44.637776 4.252922 -4.639647 85.014832 -0.000002 0.000001 0.000002 -0.000001 0.000003 -0.000001 -0.000000 0.000002 -0.000000 0.000000 -0.000000 0.000000 -0.000000 0.000002 -0.000000 -0.000000 0.000002 -0.000000 -0.000000 0.000002 -0.000000 0.000000 -0.000000 0.000000 -0.000000 0.000002 -0.000000 -0.000000 0.000002 -0.000000 -0.000000 0.000002 -0.000000 0.000000 -0.000000 0.000000 0.000000 -0.000001 -0.000000 0.000000 -0.000001 -0.000000 0.000000 -0.000001 -0.000000 
-0.942791 61.128189 1.034852 -4.994752 -42.508666 0.350411 0.000000 -0.000002 -0.000000 -30.051207 8.750130 17.115629 59.583715 -6.641326 4.092489 -27.271144 -8.040097 -13.837929 0.000000 -0.000003 0.000000 -0.000002 0.000001 -0.000000 -23.442157 -12.455310 -27.149329 59.295980 -9.252515 -7.729934 -28.654682 -6.707126 21.269390 0.000000 0.000001 -0.000000 -0.000000 -0.000002 0.000001 9.455164 7.218430 -1.795530 2.175733 1.007912 -0.914783 2.190582 1.000775 -0.893561 0.049154 13.241665 4.506405 8.795703 20.178667 -4.038382 0.000000 -0.000000 -0.000001 0.000000 -0.000000 -0.000001 0.000000 -0.000000 -0.000000 0.000000 -0.000000 -0.000002 0.000000 0.000000 0.000000 0.000000 -0.000000 -0.000002 0.000000 0.000000 0.000000 0.000000 -0.000000 -0.000001 0.000000 -0.000000 -0.000001 1.060113 3.401043 -8.204984 -53.252646 4.575414 -50.958942 0.000300 -106.452255 0.000291 2.080120 -7.637613 -15.690652 -6.141200 -11.690805 -6.761690 9.914131 42.595498 3.409864 0.000000 0.000001 0.000001 0.255326 3.378231 -45.814351 5.654072 5.847735 -88.067455 0.000002 -0.000002 0.000001 -0.461470 3.841597 -39.722686 6.450749 5.820347 -95.892837 -0.000000 0.000002 -0.000003 0.469720 4.966803 -39.799441 8.181046 5.368623 -113.502991 0.000002 0.000001 -0.000001 -3.762419 9.063703 -45.253818 5.342520 5.829000 -85.005290 -0.000000 0.000001 0.000005 0.000001 -0.000000 0.000001 2.992699 12.851429 -5.316451 -49.165665 27.692719 83.232583 0.000263 105.878041 -0.000257 -8.322235 17.530743 8.373428 -7.341076 13.749667 7.412329 9.855784 -44.489096 -3.903270 -0.000000 0.000000 0.000002 -0.124374 -2.384795 45.108874 4.500579 -4.654524 88.071191 -0.000002 0.000004 0.000003 -0.761627 -2.932910 39.031065 5.133892 -4.632756 95.881642 -0.000000 -0.000001 0.000001 0.154754 -4.068794 39.122668 6.509725 -4.273608 113.462863 -0.000000 -0.000002 -0.000001 -4.198883 -8.025522 44.637779 4.252922 -4.639645 85.014825 -0.000000 0.000003 0.000003 0.000002 0.000004 -0.000002 0.000000 0.000000 0.000000 0.000001 0.000000 0.000000 0.000000 0.000000 0.000000 0.000000 0.000000 0.000000 0.000000 0.000000 0.000000 0.000001 0.000000 0.000000 0.000000 0.000000 0.000000 0.000000 0.000000 0.000000 0.000000 0.000000 0.000000 0.000001 0.000000 0.000000 0.000000 -0.000002 -0.000000 0.000000 -0.000002 -0.000000 0.000000 -0.000002 -0.000000 
-0.948146 61.152267 1.067093 -4.920060 -42.527521 0.301673 0.000000 -0.000003 -0.000000 -30.091338 8.769480 17.338008 59.537038 -6.732795 3.917186 -27.256152 -8.115464 -13.727248 0.000000 -0.000002 0.000000 0.000001 0.000000 0.000000 -23.461867 -12.606522 -27.206633 59.201778 -9.014449 -7.603620 -28.643177 -6.677048 21.098753 0.000000 0.000001 -0.000000 0.000001 0.000001 -0.000001 9.428934 7.234359 -1.810138 2.160459 1.014517 -0.917778 2.175227 1.007281 -0.896828 -0.002263 13.274975 4.469523 8.607457 20.275410 -3.937011 0.000001 0.000000 -0.000000 0.000001 0.000000 -0.000000 0.000001 0.000000 -0.000000 0.000001 0.000000 -0.000000 0.000001 0.000000 0.000000 0.000001 0.000000 -0.000000 0.000001 0.000000 0.000000 0.000001 0.000000 -0.000000 0.000001 0.000000 -0.000000 1.001846 3.254865 -7.754998 -53.008948 4.373900 -50.549267 0.000121 -106.685642 0.000143 2.320288 -7.487230 -15.637247 -6.141198 -11.690809 -6.761687 9.914132 42.595505 3.409862 0.000004 0.000004 -0.000003 0.255322 3.378232 -45.814348 5.654072 5.847735 -88.067455 0.000001 0.000004 -0.000001 -0.461474 3.841600 -39.722693 6.450746 5.820344 -95.892837 -0.000001 0.000001 -0.000001 0.469718 4.966807 -39.799444 8.181047 5.368625 -113.502991 -0.000002 0.000001 -0.000001 -3.762420 9.063705 -45.253825 5.342519 5.828998 -85.005290 -0.000002 0.000001 -0.000000 -0.000001 0.000001 0.000001 2.949114 12.677383 -5.252450 -49.612711 28.281045 83.025847 0.000155 105.788675 -0.000156 -8.265628 17.517738 7.916556 -7.341078 13.749663 7.412328 9.855781 -44.489096 -3.903270 -0.000001 -0.000005 0.000002 -0.124373 -2.384798 45.108878 4.500579 -4.654522 88.071191 -0.000001 -0.000001 -0.000003 -0.761625 -2.932911 39.031061 5.133892 -4.632754 95.881649 -0.000001 -0.000001 0.000002 0.154757 -4.068796 39.122671 6.509725 -4.273608 113.462857 0.000000 -0.000002 -0.000001 -4.198884 -8.025524 44.637776 4.252920 -4.639648 85.014825 -0.000001 0.000000 0.000001 -0.000001 -0.000001 -0.000000 -0.000000 -0.000000 0.000000 -0.000000 -0.000000 0.000000 -0.000000 -0.000000 0.000000 -0.000000 -0.000000 0.000000 -0.000000 -0.000000 0.000000 -0.000000 -0.000000 -0.000000 -0.000000 -0.000000 0.000000 -0.000000 -0.000000 0.000000 -0.000000 -0.000000 0.000000 -0.000000 -0.000000 -0.000000 0.000000 -0.000003 -0.000000 0.000000 -0.000003 -0.000000 0.000000 -0.000003 -0.000000 
-0.953337 61.184822 1.116004 -4.838310 -42.595023 0.265886 -0.000000 0.000000 -0.000000 -30.103065 8.842667 17.560592 59.473421 -6.937908 3.738848 -27.242237 -8.076663 -13.550700 -0.000000 -0.000002 0.000000 0.000002 0.000001 0.000000 -23.429424 -12.652102 -27.270727 59.091341 -8.689368 -7.386605 -28.617229 -6.728136 20.873369 0.000000 0.000000 0.000000 0.000002 0.000001 -0.000001 9.393032 7.225674 -1.833471 2.140901 1.011716 -0.925598 2.155734 1.004233 -0.904946 -0.072025 13.322202 4.429953 8.331901 20.440830 -3.819020 -0.000000 0.000000 0.000001 -0.000000 0.000000 0.000001 -0.000000 0.000000 0.000001 -0.000000 0.000000 0.000001 -0.000000 0.000000 0.000001 -0.000000 0.000000 0.000001 -0.000000 0.000000 0.000001 -0.000000 0.000000 0.000001 -0.000000 0.000000 0.000001 0.942416 3.109333 -7.280547 -52.751815 4.313172 -50.243401 0.000173 -107.038777 0.000176 2.688490 -7.265124 -15.676426 -6.141199 -11.690805 -6.761687 9.914126 42.595505 3.409856 -0.000005 -0.000005 -0.000001 0.255326 3.378229 -45.814348 5.654073 5.847737 -88.067455 -0.000000 0.000001 -0.000002 -0.461470 3.841598 -39.722686 6.450746 5.820346 -95.892837 0.000001 0.000001 -0.000003 0.469722 4.966805 -39.799437 8.181047 5.368625 -113.502991 -0.000000 0.000002 -0.000002 -3.762418 9.063699 -45.253821 5.342517 5.828998 -85.005290 -0.000002 -0.000000 -0.000002 -0.000001 -0.000001 -0.000001 2.906331 12.509023 -5.180289 -50.050639 28.941400 82.820804 -0.000014 105.714246 -0.000002 -8.194000 17.536258 7.412602 -7.341084 13.749663 7.412324 9.855779 -44.489089 -3.903270 -0.000001 -0.000001 0.000000 -0.124373 -2.384796 45.108881 4.500579 -4.654524 88.071191 0.000001 -0.000001 0.000002 -0.761625 -2.932911 39.031065 5.133892 -4.632759 95.881642 0.000000 0.000000 -0.000001 0.154758 -4.068796 39.122675 6.509725 -4.273608 113.462857 0.000000 0.000001 -0.000001 -4.198884 -8.025529 44.637776 4.252924 -4.639646 85.014832 -0.000000 -0.000001 0.000006 0.000001 0.000003 0.000000 -0.000000 -0.000003 0.000001 0.000000 -0.000001 0.000000 -0.000000 -0.000003 0.000001 -0.000000 -0.000003 0.000001 -0.000000 -0.000003 0.000001 0.000000 -0.000001 0.000001 -0.000000 -0.000003 0.000001 -0.000000 -0.000003 0.000001 -0.000000 -0.000003 0.000001 0.000000 -0.000001 0.000001 -0.000000 0.000000 -0.000000 -0.000000 0.000000 -0.000000 -0.000000 0.000000 -0.000000 
-0.956001 61.227310 1.183311 -4.747677 -42.723851 0.247731 0.000000 -0.000000 -0.000000 -30.085508 8.988182 17.784605 59.386746 -7.244350 3.557408 -27.229517 -7.938108 -13.310412 -0.000000 -0.000001 -0.000000 0.000001 -0.000001 -0.000000 -23.362068 -12.608926 -27.345531 58.959095 -8.198208 -7.106005 -28.573354 -6.912403 20.564002 -0.000000 -0.000000 0.000001 -0.000001 0.000000 -0.000000 9.346586 7.197723 -1.868535 2.116463 1.001625 -0.938756 2.131453 0.993923 -0.918455 -0.160922 13.383829 4.389431 7.954194 20.680840 -3.679498 -0.000001 0.000000 0.000000 -0.000001 0.000000 0.000000 -0.000001 0.000000 0.000001 -0.000001 0.000000 0.000000 -0.000001 0.000000 0.000001 -0.000001 0.000000 0.000000 -0.000001 0.000000 0.000001 -0.000001 0.000000 0.000000 -0.000001 0.000000 0.000000 0.882103 2.965738 -6.781122 -52.480315 4.371686 -50.014747 0.000157 -107.494357 0.000166 3.165241 -6.978615 -15.781369 -6.141200 -11.690803 -6.761697 9.914127 42.595505 3.409856 -0.000000 -0.000000 -0.000002 0.255322 3.378232 -45.814351 5.654070 5.847737 -88.067455 0.000002 0.000000 -0.000000 -0.461472 3.841598 -39.722686 6.450747 5.820344 -95.892837 0.000001 0.000002 -0.000001 0.469720 4.966806 -39.799441 8.181047 5.368623 -113.502991 0.000000 0.000002 0.000000 -3.762420 9.063707 -45.253825 5.342524 5.828996 -85.005290 -0.000001 0.000001 -0.000001 0.000000 -0.000000 0.000001 2.865106 12.349326 -5.101036 -50.475183 29.672883 82.603843 0.000147 105.652228 -0.000170 -8.122101 17.604896 6.868994 -7.341082 13.749669 7.412320 9.855782 -44.489093 -3.903278 0.000001 0.000001 0.000000 -0.124372 -2.384796 45.108874 4.500579 -4.654522 88.071191 0.000002 0.000003 -0.000003 -0.761626 -2.932909 39.031061 5.133891 -4.632752 95.881642 -0.000000 -0.000003 0.000004 0.154755 -4.068795 39.122668 6.509725 -4.273607 113.462850 -0.000002 0.000000 -0.000001 -4.198884 -8.025524 44.637779 4.252922 -4.639647 85.014839 0.000001 0.000001 0.000001 0.000001 -0.000001 -0.000002 -0.000001 0.000001 -0.000000 -0.000000 -0.000000 -0.000000 -0.000001 0.000001 -0.000000 -0.000001 0.000001 -0.000000 -0.000001 0.000001 -0.000000 -0.000000 -0.000000 -0.000000 -0.000001 0.000001 -0.000000 -0.000001 0.000001 -0.000000 -0.000001 0.000001 -0.000000 -0.000000 -0.000000 -0.000000 0.000000 -0.000000 -0.000000 0.000000 -0.000000 -0.000000 0.000000 -0.000000 -0.000000 
